<svg version="1.0" xmlns="http://www.w3.org/2000/svg" width="504.5188" height="499.1828" viewBox="131.26559999999998 72.56959999999998 504.5188 499.1828" preserveAspectRatio="xMidYMid meet">

<g transform="translate(0.000000,500.000000) scale(0.100000,-0.100000)" fill="#000000" stroke="none">
<path d="M2496 4000 c-3 -14 -22 -102 -41 -197 -137 -662 -309 -931 -705
-1097 -136 -58 -347 -118 -577 -166 -102 -21 -186 -40 -188 -42 -3 -2 37 -12
88 -22 408 -76 692 -170 874 -288 258 -168 408 -476 523 -1073 12 -60 23 -117
26 -125 3 -8 23 68 44 170 99 485 196 720 370 904 176 185 441 295 965 401
l160 32 -60 12 c-621 127 -866 222 -1048 404 -181 180 -280 419 -387 931 -26
125 -39 173 -44 156z"></path>
</g>
</svg>