<svg width="300" height="300" xmlns="http://www.w3.org/2000/svg" version="1.0" preserveAspectRatio="xMidYMid meet">
 <g id="Layer_1">
  <title>Layer 1</title>
  <g stroke="null">
   <g stroke="null" fill="#000000" transform="translate(0 500) scale(0.1 -0.1)">
    <path stroke="null" d="m1491.7717,4996.725c-2.96151,-13.85863 -21.71776,-100.96999 -40.47401,-195.01066c-135.24243,-655.31502 -305.03584,-921.59861 -695.95555,-1085.92232c-134.25526,-57.41431 -342.54834,-116.80842 -569.59766,-164.32371c-100.69144,-20.78794 -183.6138,-39.59607 -185.58815,-41.57588c-2.96151,-1.9798 36.52533,-11.87882 86.87105,-21.77784c402.76577,-75.23254 683.12233,-168.28331 862.78745,-285.09173c254.69012,-166.30351 402.76577,-471.19328 516.29043,-1062.16468c11.84605,-59.39411 22.70493,-115.81852 25.66645,-123.73773c2.96151,-7.91921 22.70493,67.31333 43.43552,168.28331c97.72993,480.10239 193.48551,712.72933 365.25327,894.87126c173.74209,183.13184 435.34241,292.02104 952.62001,396.95064l157.94736,31.67686l-59.23026,11.87882c-613.03319,125.71753 -854.89008,219.75821 -1034.5552,399.92034c-178.67795,178.18233 -276.40788,414.76887 -382.03517,921.59861c-25.66645,123.73773 -38.49967,171.25302 -43.43552,154.42469z"/>
   </g>
  </g>
 </g>

</svg>